<?xml version="1.0" encoding="UTF-8" standalone="no"?><!DOCTYPE svg PUBLIC "-//W3C//DTD SVG 1.1//EN" "http://www.w3.org/Graphics/SVG/1.1/DTD/svg11.dtd"><svg width="100%" height="100%" viewBox="0 0 512 512" version="1.1" xmlns="http://www.w3.org/2000/svg" xmlns:xlink="http://www.w3.org/1999/xlink" xml:space="preserve" xmlns:serif="http://www.serif.com/" style="fill-rule:evenodd;clip-rule:evenodd;stroke-linejoin:round;stroke-miterlimit:2;"><g id="redesign"><g id="Fourth"><path d="M420,355l0,30c0,8.279 -6.721,15 -15,15l-290,-0c-8.279,-0 -15,-6.721 -15,-15l-0,-30c-0,-8.279 6.721,-15 15,-15l290,-0c8.279,-0 15,6.721 15,15Z" style="fill:#5eead4;"/><path d="M400,365l-0,10c-0,2.76 -2.24,5 -5,5l-10,0c-2.76,0 -5,-2.24 -5,-5l-0,-10c-0,-2.76 2.24,-5 5,-5l10,0c2.76,0 5,2.24 5,5Z" style="fill:#fff;"/></g><g id="Third"><path d="M420,275l0,30c0,8.279 -6.721,15 -15,15l-210,-0c-8.279,-0 -15,-6.721 -15,-15l0,-30c0,-8.279 6.721,-15 15,-15l210,-0c8.279,-0 15,6.721 15,15Z" style="fill:#2dd4bf;"/><circle cx="130" cy="290" r="30" style="fill:#2dd4bf;"/><path d="M400,285l-0,10c-0,2.76 -2.24,5 -5,5l-10,0c-2.76,0 -5,-2.24 -5,-5l-0,-10c-0,-2.76 2.24,-5 5,-5l10,0c2.76,0 5,2.24 5,5Z" style="fill:#fff;"/></g><g id="Second"><path d="M420,195l-0,30c-0,8.279 -6.721,15 -15,15l-210,0c-8.279,0 -15,-6.721 -15,-15l0,-30c0,-8.279 6.721,-15 15,-15l210,0c8.279,0 15,6.721 15,15Z" style="fill:#14b8a6;"/><circle cx="130" cy="210" r="30" style="fill:#14b8a6;"/><path d="M400,205l0,10c0,2.76 -2.24,5 -5,5l-10,0c-2.76,0 -5,-2.24 -5,-5l0,-10c0,-2.76 2.24,-5 5,-5l10,0c2.76,0 5,2.24 5,5Z" style="fill:#fff;"/></g><g id="First"><path d="M420,115l0,30c0,8.279 -6.721,15 -15,15l-210,0c-8.279,0 -15,-6.721 -15,-15l0,-30c0,-8.279 6.721,-15 15,-15l210,0c8.279,0 15,6.721 15,15Z" style="fill:#2aa196;"/><circle cx="130" cy="130" r="30" style="fill:#2aa196;"/><path d="M400,125l0,10c0,2.76 -2.24,5 -5,5l-10,0c-2.76,0 -5,-2.24 -5,-5l0,-10c0,-2.76 2.24,-5 5,-5l10,0c2.76,0 5,2.24 5,5Z" style="fill:#fff;"/></g></g></svg>