<?xml version="1.0" encoding="UTF-8" standalone="no"?><!DOCTYPE svg PUBLIC "-//W3C//DTD SVG 1.1//EN" "http://www.w3.org/Graphics/SVG/1.1/DTD/svg11.dtd"><svg width="100%" height="100%" viewBox="0 0 48 48" version="1.1" xmlns="http://www.w3.org/2000/svg" xmlns:xlink="http://www.w3.org/1999/xlink" xml:space="preserve" xmlns:serif="http://www.serif.com/" style="fill-rule:evenodd;clip-rule:evenodd;stroke-linejoin:round;stroke-miterlimit:2;"><g id="redesign"><g id="Fourth"><path d="M48,41.25l0,4.5c0,1.242 -1.008,2.25 -2.25,2.25l-43.5,0c-1.242,0 -2.25,-1.008 -2.25,-2.25l0,-4.5c0,-1.242 1.008,-2.25 2.25,-2.25l43.5,0c1.242,0 2.25,1.008 2.25,2.25Z" style="fill:#5eead4;"/><path d="M45,42.75l0,1.5c0,0.414 -0.336,0.75 -0.75,0.75l-1.5,0c-0.414,0 -0.75,-0.336 -0.75,-0.75l0,-1.5c0,-0.414 0.336,-0.75 0.75,-0.75l1.5,0c0.414,0 0.75,0.336 0.75,0.75Z" style="fill:#fff;"/></g><g id="Third"><path d="M48,29.25l0,4.5c0,1.242 -1.008,2.25 -2.25,2.25l-31.5,0c-1.242,0 -2.25,-1.008 -2.25,-2.25l0,-4.5c0,-1.242 1.008,-2.25 2.25,-2.25l31.5,0c1.242,0 2.25,1.008 2.25,2.25Z" style="fill:#2dd4bf;"/><circle cx="4.5" cy="31.5" r="4.5" style="fill:#2dd4bf;"/><path d="M45,30.75l0,1.5c0,0.414 -0.336,0.75 -0.75,0.75l-1.5,0c-0.414,0 -0.75,-0.336 -0.75,-0.75l0,-1.5c0,-0.414 0.336,-0.75 0.75,-0.75l1.5,0c0.414,0 0.75,0.336 0.75,0.75Z" style="fill:#fff;"/></g><g id="Second"><path d="M48,17.25l-0,4.5c-0,1.242 -1.008,2.25 -2.25,2.25l-31.5,0c-1.242,0 -2.25,-1.008 -2.25,-2.25l0,-4.5c0,-1.242 1.008,-2.25 2.25,-2.25l31.5,0c1.242,0 2.25,1.008 2.25,2.25Z" style="fill:#14b8a6;"/><circle cx="4.5" cy="19.5" r="4.5" style="fill:#14b8a6;"/><path d="M45,18.75l0,1.5c0,0.414 -0.336,0.75 -0.75,0.75l-1.5,0c-0.414,0 -0.75,-0.336 -0.75,-0.75l0,-1.5c0,-0.414 0.336,-0.75 0.75,-0.75l1.5,0c0.414,0 0.75,0.336 0.75,0.75Z" style="fill:#fff;"/></g><g id="First"><path d="M48,5.25l0,4.5c0,1.242 -1.008,2.25 -2.25,2.25l-31.5,0c-1.242,0 -2.25,-1.008 -2.25,-2.25l0,-4.5c0,-1.242 1.008,-2.25 2.25,-2.25l31.5,0c1.242,0 2.25,1.008 2.25,2.25Z" style="fill:#2aa196;"/><circle cx="4.5" cy="7.5" r="4.5" style="fill:#2aa196;"/><path d="M45,6.75l0,1.5c0,0.414 -0.336,0.75 -0.75,0.75l-1.5,0c-0.414,0 -0.75,-0.336 -0.75,-0.75l0,-1.5c0,-0.414 0.336,-0.75 0.75,-0.75l1.5,0c0.414,0 0.75,0.336 0.75,0.75Z" style="fill:#fff;"/></g><g id="Layer1"><rect x="0" y="0" width="48" height="3" style="fill:none;"/></g></g></svg>