<?xml version="1.0" encoding="UTF-8" standalone="no"?>
<!DOCTYPE svg PUBLIC "-//W3C//DTD SVG 1.1//EN" "http://www.w3.org/Graphics/SVG/1.1/DTD/svg11.dtd"><svg width="100%"
    height="100%" viewBox="0 0 512 512" version="1.1" xmlns="http://www.w3.org/2000/svg"
    xmlns:xlink="http://www.w3.org/1999/xlink" xml:space="preserve" xmlns:serif="http://www.serif.com/"
    style="fill-rule:evenodd;clip-rule:evenodd;stroke-linejoin:round;stroke-miterlimit:2;">
    <path id="First"
        d="M380,110l-0,20c-0,5.519 -4.481,10 -10,10l-180,0c-5.519,0 -10,-4.481 -10,-10l0,-20c0,-5.519 4.481,-10 10,-10l180,0c5.519,0 10,4.481 10,10Zm-20,5c0,-2.76 -2.24,-5 -5,-5l-10,0c-2.76,0 -5,2.24 -5,5l0,10c0,2.76 2.24,5 5,5l10,0c2.76,0 5,-2.24 5,-5l0,-10Zm-220,-15c11.038,0 20,8.962 20,20c0,11.038 -8.962,20 -20,20c-11.038,0 -20,-8.962 -20,-20c0,-11.038 8.962,-20 20,-20Z"
        style="fill:#0d9488;" />
    <path id="Third"
        d="M140,220c11.038,0 20,8.962 20,20c0,11.038 -8.962,20 -20,20c-11.038,0 -20,-8.962 -20,-20c0,-11.038 8.962,-20 20,-20Zm240,10l-0,20c-0,5.519 -4.481,10 -10,10l-180,0c-5.519,0 -10,-4.481 -10,-10l0,-20c0,-5.519 4.481,-10 10,-10l180,0c5.519,0 10,4.481 10,10Zm-20,5c0,-2.76 -2.24,-5 -5,-5l-10,0c-2.76,0 -5,2.24 -5,5l0,10c0,2.76 2.24,5 5,5l10,0c2.76,0 5,-2.24 5,-5l0,-10Z"
        style="fill:#2dd4bf;" />
    <path id="Second"
        d="M140,160c11.038,0 20,8.962 20,20c0,11.038 -8.962,20 -20,20c-11.038,0 -20,-8.962 -20,-20c0,-11.038 8.962,-20 20,-20Zm240,10l-0,20c-0,5.519 -4.481,10 -10,10l-180,0c-5.519,0 -10,-4.481 -10,-10l0,-20c0,-5.519 4.481,-10 10,-10l180,0c5.519,0 10,4.481 10,10Zm-20,5c0,-2.76 -2.24,-5 -5,-5l-10,0c-2.76,0 -5,2.24 -5,5l0,10c0,2.76 2.24,5 5,5l10,0c2.76,0 5,-2.24 5,-5l0,-10Z"
        style="fill:#14b8a6;" />
    <path id="Fourth"
        d="M380,290l0,20c0,5.519 -4.481,10 -10,10l-240,0c-5.519,0 -10,-4.481 -10,-10l-0,-20c-0,-5.519 4.481,-10 10,-10l240,0c5.519,0 10,4.481 10,10Z"
        style="fill:#5eead4;" />
    <path id="Fifth"
        d="M380,350l0,20c0,5.519 -4.481,10 -10,10l-240,0c-5.519,0 -10,-4.481 -10,-10l-0,-20c-0,-5.519 4.481,-10 10,-10l240,0c5.519,0 10,4.481 10,10Z"
        style="fill:#99f6e4;" />
</svg>